<svg width="31" height="29" viewBox="0 0 31 29" fill="none" xmlns="http://www.w3.org/2000/svg">
<path d="M14.68 0.323623C14.9039 -0.107904 15.5212 -0.107905 15.7451 0.323622L20.1195 8.75351C20.2065 8.9212 20.3674 9.03812 20.5538 9.06905L29.9228 10.6243C30.4025 10.7039 30.5932 11.291 30.252 11.6373L23.5864 18.4026C23.4538 18.5372 23.3924 18.7263 23.4205 18.9131L24.8366 28.3042C24.9091 28.785 24.4097 29.1478 23.9749 28.9303L15.481 24.6816C15.312 24.597 15.1131 24.597 14.9441 24.6816L6.45026 28.9303C6.01545 29.1478 5.51606 28.785 5.58854 28.3042L7.00458 18.9131C7.03275 18.7263 6.97128 18.5372 6.83869 18.4026L0.173139 11.6373C-0.168071 11.291 0.0226802 10.7039 0.502283 10.6243L9.87133 9.06906C10.0577 9.03812 10.2186 8.9212 10.3056 8.75351L14.68 0.323623Z" fill="#232627"/>
</svg>
